<svg width="24" height="24" viewBox="0 0 24 24" fill="none" xmlns="http://www.w3.org/2000/svg">
<path d="M9.00024 4.75H15.9526V3.25H9.00024V4.75ZM18.2026 7V18.5858H19.7026V7H18.2026ZM6.75024 18.5858V7H5.25024V18.5858H6.75024ZM17.7758 18.7626L14.421 15.4077L13.3603 16.4684L16.7152 19.8232L17.7758 18.7626ZM10.5319 15.4077L7.17702 18.7626L8.23768 19.8232L11.5926 16.4684L10.5319 15.4077ZM14.421 15.4077C13.347 14.3338 11.6058 14.3338 10.5319 15.4077L11.5926 16.4684C12.0807 15.9802 12.8722 15.9802 13.3603 16.4684L14.421 15.4077ZM5.25024 18.5858C5.25024 20.1449 7.13524 20.9257 8.23768 19.8232L7.17702 18.7626C7.01953 18.9201 6.75024 18.8085 6.75024 18.5858H5.25024ZM18.2026 18.5858C18.2026 18.8085 17.9333 18.9201 17.7758 18.7626L16.7152 19.8232C17.8176 20.9257 19.7026 20.1449 19.7026 18.5858H18.2026ZM15.9526 4.75C17.1953 4.75 18.2026 5.75736 18.2026 7H19.7026C19.7026 4.92893 18.0237 3.25 15.9526 3.25V4.75ZM9.00024 3.25C6.92918 3.25 5.25024 4.92893 5.25024 7H6.75024C6.75024 5.75736 7.7576 4.75 9.00024 4.75V3.25Z" fill="#7D848D"/>
</svg>
