<svg width="24" height="24" viewBox="0 0 24 24" fill="none" xmlns="http://www.w3.org/2000/svg">
<path d="M5.31322 12.9153L4.568 12.8307L4.568 12.8307L5.31322 12.9153ZM5.7604 8.97519L6.50562 9.05977L5.7604 8.97519ZM4.44772 14.8721L3.87662 14.386H3.87662L4.44772 14.8721ZM19.4319 12.8307C19.3852 12.4191 19.0137 12.1233 18.6021 12.17C18.1905 12.2168 17.8947 12.5883 17.9414 12.9998L19.4319 12.8307ZM19.5522 14.8721L18.981 15.3583L19.5522 14.8721ZM9.72999 4.37366L9.97294 5.08322C10.2762 4.97938 10.48 4.69424 10.48 4.37366H9.72999ZM13.1539 3.28059C13.4237 3.59487 13.8972 3.6309 14.2115 3.36107C14.5257 3.09125 14.5618 2.61774 14.2919 2.30347L13.1539 3.28059ZM15.7022 20.2632C15.8476 19.8753 15.651 19.4431 15.2631 19.2977C14.8753 19.1523 14.443 19.3489 14.2976 19.7368L15.7022 20.2632ZM9.70224 19.7368C9.55687 19.3489 9.1246 19.1523 8.73674 19.2977C8.34887 19.4431 8.15228 19.8753 8.29764 20.2632L9.70224 19.7368ZM17.7771 17.25H6.22275V18.75H17.7771V17.25ZM6.05843 12.9998L6.50562 9.05977L5.01519 8.89061L4.568 12.8307L6.05843 12.9998ZM5.01883 15.3583C5.59615 14.6801 5.96022 13.8652 6.05843 12.9998L4.568 12.8307C4.50513 13.3846 4.27061 13.9231 3.87662 14.386L5.01883 15.3583ZM17.9414 12.9998C18.0397 13.8652 18.4037 14.6801 18.981 15.3583L20.1233 14.386C19.7293 13.9231 19.4947 13.3846 19.4319 12.8307L17.9414 12.9998ZM6.22275 17.25C5.56771 17.25 5.10436 16.926 4.8905 16.5492C4.68403 16.1854 4.68708 15.748 5.01883 15.3583L3.87662 14.386C3.11135 15.285 3.08771 16.4116 3.58592 17.2895C4.07673 18.1544 5.04941 18.75 6.22275 18.75V17.25ZM17.7771 18.75C18.9505 18.75 19.9231 18.1544 20.414 17.2895C20.9122 16.4116 20.8885 15.285 20.1233 14.386L18.981 15.3583C19.3128 15.748 19.3158 16.1854 19.1094 16.5492C18.8955 16.926 18.4322 17.25 17.7771 17.25V18.75ZM10.48 4.37366V4.26995H8.97999V4.37366H10.48ZM6.50562 9.05977C6.70864 7.27101 8.05581 5.73962 9.97294 5.08322L9.48705 3.6641C7.11938 4.47476 5.29443 6.43026 5.01519 8.89061L6.50562 9.05977ZM11.9999 1.25C10.3321 1.25 8.97999 2.60208 8.97999 4.26995H10.48C10.48 3.4305 11.1605 2.75 11.9999 2.75V1.25ZM11.9999 2.75C12.4613 2.75 12.874 2.95459 13.1539 3.28059L14.2919 2.30347C13.7392 1.65971 12.917 1.25 11.9999 1.25V2.75ZM14.2976 19.7368C13.9749 20.5979 13.0845 21.25 11.9999 21.25V22.75C13.6854 22.75 15.1516 21.7325 15.7022 20.2632L14.2976 19.7368ZM11.9999 21.25C10.9154 21.25 10.025 20.5979 9.70224 19.7368L8.29764 20.2632C8.84829 21.7325 10.3145 22.75 11.9999 22.75V21.25Z" fill="white"/>
<path d="M20.9999 7C20.9999 8.65685 19.6568 10 17.9999 10C16.3431 10 14.9999 8.65685 14.9999 7C14.9999 5.34315 16.3431 4 17.9999 4C19.6568 4 20.9999 5.34315 20.9999 7Z" fill="#FF7029"/>
<path d="M20.4999 7C20.4999 8.38071 19.3807 9.5 17.9999 9.5V10.5C19.9329 10.5 21.4999 8.933 21.4999 7H20.4999ZM17.9999 9.5C16.6192 9.5 15.4999 8.38071 15.4999 7H14.4999C14.4999 8.933 16.0669 10.5 17.9999 10.5V9.5ZM15.4999 7C15.4999 5.61929 16.6192 4.5 17.9999 4.5V3.5C16.0669 3.5 14.4999 5.067 14.4999 7H15.4999ZM17.9999 4.5C19.3807 4.5 20.4999 5.61929 20.4999 7H21.4999C21.4999 5.067 19.9329 3.5 17.9999 3.5V4.5Z" fill="white"/>
</svg>
