<svg width="24" height="24" viewBox="0 0 24 24" fill="none" xmlns="http://www.w3.org/2000/svg">
<path fill-rule="evenodd" clip-rule="evenodd" d="M9.06678 13.5699L7.22778 11.1249L8.57778 10.6719C8.82278 10.5899 9.09178 10.6279 9.30378 10.7749L10.4758 11.5839L13.2948 10.3429L10.3498 6.61193L12.7478 6.10193L16.6208 9.13493L20.7508 7.48893C21.7618 7.08593 22.8778 7.75993 22.9908 8.84193V8.84193C23.0668 9.55993 22.6638 10.2439 21.9978 10.5259L14.5948 13.6599C14.4048 13.7399 14.2028 13.7839 13.9968 13.7889L9.74278 13.8949C9.47778 13.9039 9.22578 13.7819 9.06678 13.5699Z" stroke="#7D848D" stroke-width="1.4" stroke-linecap="round" stroke-linejoin="round"/>
<path d="M20.035 7.79996C18.59 4.96096 15.648 3.01196 12.245 3.01196C7.415 3.01196 3.5 6.92896 3.5 11.762C3.5 16.594 7.415 20.512 12.245 20.512C17.075 20.512 20.99 16.595 20.99 11.762C20.99 11.501 20.973 11.245 20.951 10.99" stroke="#7D848D" stroke-width="1.4" stroke-linecap="round" stroke-linejoin="round"/>
<path d="M3.5199 12.349C1.6559 13.716 0.646902 15.233 1.0969 16.293C1.7349 17.873 5.3349 17.908 9.1379 16.371" stroke="#7D848D" stroke-width="1.4" stroke-linecap="round" stroke-linejoin="round"/>
</svg>
