<svg width="19" height="12" viewBox="0 0 19 12" fill="none" xmlns="http://www.w3.org/2000/svg">
<path d="M1.53329 5.97265C1.24204 5.67812 0.767177 5.67546 0.472648 5.96671C0.178119 6.25796 0.17546 6.73282 0.466708 7.02735L1.53329 5.97265ZM4.95545 10.5L4.42216 11.0274C4.56812 11.175 4.76873 11.2555 4.97624 11.2497C5.18375 11.244 5.3796 11.1525 5.51715 10.997L4.95545 10.5ZM13.9225 1.49698C14.197 1.18676 14.168 0.71277 13.8578 0.438296C13.5475 0.163822 13.0735 0.1928 12.7991 0.50302L13.9225 1.49698ZM0.466708 7.02735L4.42216 11.0274L5.48874 9.97265L1.53329 5.97265L0.466708 7.02735ZM5.51715 10.997L13.9225 1.49698L12.7991 0.50302L4.39374 10.003L5.51715 10.997Z" fill="#7D848D"/>
<path d="M8.34894 10.003C8.07447 10.3132 8.10344 10.7872 8.41366 11.0617C8.72389 11.3362 9.19787 11.3072 9.47235 10.997L8.34894 10.003ZM17.8777 1.49698C18.1521 1.18676 18.1232 0.71277 17.813 0.438296C17.5027 0.163822 17.0287 0.1928 16.7543 0.50302L17.8777 1.49698ZM9.47235 10.997L17.8777 1.49698L16.7543 0.50302L8.34894 10.003L9.47235 10.997Z" fill="#7D848D"/>
</svg>
