<svg width="34" height="34" viewBox="0 0 34 34" fill="none" xmlns="http://www.w3.org/2000/svg">
<g opacity="0.2" filter="url(#filter0_b_2101_3182)">
<rect width="34" height="34" rx="17" fill="#1B1E28"/>
</g>
<path d="M15.5859 20.1642L15.0555 19.6339L15.5859 20.1642ZM14.0001 9.75H20.0001V8.25H14.0001V9.75ZM22.2501 12V22.3358H23.7501V12H22.2501ZM11.7501 22.3358V12H10.2501V22.3358H11.7501ZM21.8233 22.5126L18.9446 19.6339L17.884 20.6945L20.7627 23.5732L21.8233 22.5126ZM15.0555 19.6339L12.1769 22.5126L13.2375 23.5732L16.1162 20.6945L15.0555 19.6339ZM18.9446 19.6339C17.8707 18.5599 16.1295 18.5599 15.0555 19.6339L16.1162 20.6945C16.6044 20.2064 17.3958 20.2064 17.884 20.6945L18.9446 19.6339ZM10.2501 22.3358C10.2501 23.8949 12.1351 24.6757 13.2375 23.5732L12.1769 22.5126C12.0194 22.6701 11.7501 22.5585 11.7501 22.3358H10.2501ZM22.2501 22.3358C22.2501 22.5585 21.9808 22.6701 21.8233 22.5126L20.7627 23.5732C21.8651 24.6757 23.7501 23.8949 23.7501 22.3358H22.2501ZM20.0001 9.75C21.2427 9.75 22.2501 10.7574 22.2501 12H23.7501C23.7501 9.92893 22.0712 8.25 20.0001 8.25V9.75ZM14.0001 8.25C11.929 8.25 10.2501 9.92893 10.2501 12H11.7501C11.7501 10.7574 12.7575 9.75 14.0001 9.75V8.25Z" fill="white"/>
<defs>
<filter id="filter0_b_2101_3182" x="-30" y="-30" width="94" height="94" filterUnits="userSpaceOnUse" color-interpolation-filters="sRGB">
<feFlood flood-opacity="0" result="BackgroundImageFix"/>
<feGaussianBlur in="BackgroundImage" stdDeviation="15"/>
<feComposite in2="SourceAlpha" operator="in" result="effect1_backgroundBlur_2101_3182"/>
<feBlend mode="normal" in="SourceGraphic" in2="effect1_backgroundBlur_2101_3182" result="shape"/>
</filter>
</defs>
</svg>
